<svg xmlns="http://www.w3.org/2000/svg" width="700" height="700" viewBox="0 0 700 700"><path fill="none" fill-opacity="0" stroke="#fefefe" stroke-opacity=".03" stroke-width=".3" d="M0 700h700V0H0v700M237 15c9.74 1.39 19.87 6.72 28.1 11.9 8.22 5.18 14.5 11.17 19.7 18.35 5.2 7.17 10.28 16.04 12.98 25.97 2.7 9.94 4.22 22.92 1.89 33.45-2.32 10.53-9.7 18.34-8.34 29s11.15 16.94 12.99 28.01c1.85 11.06-13.96 10.85-21.57 5.12-7.61-5.72-17.69-11.06-26.45-6.5-8.77 4.55-23.2 8.21-33.3 7.7s-23.5-2.95-32.23-7.77-15.35-8.99-22.02-15.98c-6.66-6.99-12.01-16.16-15.52-25.48s-7.25-22.59-5.3-32.84 4.51-21.51 9.38-30.62c4.86-9.12 10.14-16.07 18.44-22.56 8.31-6.48 13.93-10.16 24.14-13.86 10.22-3.7 25.33-5.57 37.11-3.89m279 234v22c19.16 2.23 21.36 32.63 3.77 38.77-17.58 6.14-34.38 11.2-52.78 12.22-18.39 1.02-37.88-7.15-54.99-11.99.55 17.39-.73 37.92 0 55s-3.11 35.43 4.32 49.68c7.44 14.24 8.54 25.13 15.66 39.34 7.11 14.22 9.6 30.29 9.02 46.98s-.09 38.99 0 55-7.8 29.36-24.67 28.67c-16.87-.7-21.4-16.16-21.33-31.67s-2.37-38.79-1-55-3.34-28.05-8.98-42.02C379.39 442 373.3 430.31 369 416h-10c.79 21.92-2.48 46.25-1 68s-2.75 47.41-1 68-10.44 38.35-31.22 30.22C305 574.1 311.89 548.45 311 528s.4-46.63 1-68-.45-47.22 0-69c-12.58 16.41-30.89 8.96-39.3-6.7-8.42-15.65-15.03-26.81-25.47-41.53-10.44-14.71-6.34-29.62 7.02-41.52 13.35-11.9 21.19-18.41 36.78-26.22 15.59-7.8 30.38-11.34 48.19-14.81 17.82-3.47 40.21-1.49 57.85 2.71 17.65 4.19 34.21 10.79 51.6 15.4 17.4 4.6 37.42-1.09 54.33-5.33-2.26-7.5-.39-16.08-1-24-33.35-8.46-45.67-47.2-28.75-76.75 16.93-29.54 60.96-26.34 74.52 4.98S545.21 241.76 516 249m-148-94c33.64 4.81 52.15 48.05 31.03 75.03-21.13 26.97-64.8 23.34-79.8-8.26-15-31.59 11.93-72.03 48.77-66.77Z"/><path fill="none" fill-opacity="0" stroke="#fff" stroke-opacity=".99" stroke-width=".3" d="M237 15c-11.78-1.68-26.89.19-37.11 3.89-10.21 3.7-15.83 7.38-24.14 13.86-8.3 6.49-13.58 13.44-18.44 22.56-4.87 9.11-7.43 20.37-9.38 30.62s1.79 23.52 5.3 32.84 8.86 18.49 15.52 25.48c6.67 6.99 13.29 11.16 22.02 15.98S212.9 167.49 223 168s24.53-3.15 33.3-7.7c8.76-4.56 18.84.78 26.45 6.5 7.61 5.73 23.42 5.94 21.57-5.12-1.84-11.07-11.63-17.35-12.99-28.01s6.02-18.47 8.34-29c2.33-10.53.81-23.51-1.89-33.45-2.7-9.93-7.78-18.8-12.98-25.97-5.2-7.18-11.48-13.17-19.7-18.35-8.23-5.18-18.36-10.51-28.1-11.9m-34 42c15.71 2.43 10.76 28.62-5 25s-10.57-27.41 5-25m47 0c15.36 2.37 10.82 28.44-5 25s-10.79-27.44 5-25m4 44c5.58 2.88-.05 13.38-2.77 17.23s-7.07 9.33-12.31 11.69c-5.24 2.35-12.69 4.49-18.94 3.1-6.26-1.39-12.34-2.4-17.23-7.77-4.89-5.38-6.54-7.16-9.53-14.47-2.99-7.32 3.97-11.79 11.78-9.78s16.54-2.08 24 0 18.3-3.46 25 0Z"/><path fill="none" fill-opacity="0" stroke="#fcfcfc" stroke-opacity=".1" stroke-width=".3" d="M203 57c-15.57-2.41-20.76 21.38-5 25s20.71-22.57 5-25Z"/><path fill="none" fill-opacity="0" stroke="#fdfdfd" stroke-opacity=".1" stroke-width=".3" d="M250 57c-15.79-2.44-20.82 21.56-5 25s20.36-22.63 5-25Z"/><path fill="none" fill-opacity="0" stroke="#fefefe" stroke-opacity=".07" stroke-width=".3" d="M254 101c-6.7-3.46-17.54 2.08-25 0s-16.19 2.01-24 0-14.77 2.46-11.78 9.78c2.99 7.31 4.64 9.09 9.53 14.47 4.89 5.37 10.97 6.38 17.23 7.77 6.25 1.39 13.7-.75 18.94-3.1 5.24-2.36 9.59-7.84 12.31-11.69s8.35-14.35 2.77-17.23Z"/><path fill="none" fill-opacity="0" stroke="#fefefe" stroke-opacity=".99" stroke-width=".3" d="M516 249c29.21-7.24 45.33-40.45 31.77-71.77s-57.59-34.52-74.52-4.98c-16.92 29.55-4.6 68.29 28.75 76.75.61 7.92-1.26 16.5 1 24-16.91 4.24-36.93 9.93-54.33 5.33-17.39-4.61-33.95-11.21-51.6-15.4-17.64-4.2-40.03-6.18-57.85-2.71-17.81 3.47-32.6 7.01-48.19 14.81-15.59 7.81-23.43 14.32-36.78 26.22-13.36 11.9-17.46 26.81-7.02 41.52 10.44 14.72 17.05 25.88 25.47 41.53 8.41 15.66 26.72 23.11 39.3 6.7-.45 21.78.6 47.63 0 69s-1.89 47.55-1 68-6 46.1 14.78 54.22c20.78 8.13 32.97-9.63 31.22-30.22s2.48-46.25 1-68 1.79-46.08 1-68h10c4.3 14.31 10.39 26 16.02 39.98 5.64 13.97 10.35 25.81 8.98 42.02s1.07 39.49 1 55 4.46 30.97 21.33 31.67c16.87.69 24.76-12.66 24.67-28.67s-.58-38.31 0-55-1.91-32.76-9.02-46.98c-7.12-14.21-8.22-25.1-15.66-39.34-7.43-14.25-3.59-32.6-4.32-49.68s.55-37.61 0-55c17.11 4.84 36.6 13.01 54.99 11.99 18.4-1.02 35.2-6.08 52.78-12.22 17.59-6.14 15.39-36.54-3.77-38.77v-22m-2-85c37.81 6.14 29.94 78.31-9.22 72.22S473.89 157.49 514 164M313 311c-1.77 19.64.18 40.87-2 60-3.53-7.5-10.67-15.79-13.92-23.08s-14.75-16.06-7.83-22.67S304.47 314.57 313 311Z"/><path fill="none" fill-opacity="0" stroke="#fefefe" stroke-opacity=".98" stroke-width=".3" d="M368 155c-36.84-5.26-63.77 35.18-48.77 66.77 15 31.6 58.67 35.23 79.8 8.26 21.12-26.98 2.61-70.22-31.03-75.03Z"/><path fill="none" fill-opacity="0" stroke="#fdfdfd" stroke-opacity=".07" stroke-width=".3" d="M514 164c-40.11-6.51-48.38 66.13-9.22 72.22S551.81 170.14 514 164m-2 22c-1.7 7.33-13.63 21.37-21 15 1.12-7.81 13.4-22.7 21-15m15 7c-3.87 9.22-16.26 22.17-26 26-1.11-3.12-2.82-3.53-3-7 8.02-5.55 16.48-13.99 22-22 3.38.16 3.82 1.86 7 3Z"/><path fill="none" fill-opacity="0" stroke="#fff" stroke-opacity=".9" stroke-width=".3" d="M512 186c-7.6-7.7-19.88 7.19-21 15 7.37 6.37 19.3-7.67 21-15Z"/><path fill="none" fill-opacity="0" stroke="#fff" stroke-opacity=".95" stroke-width=".3" d="M527 193c-3.18-1.14-3.62-2.84-7-3-5.52 8.01-13.98 16.45-22 22 .18 3.47 1.89 3.88 3 7 9.74-3.83 22.13-16.78 26-26Z"/><path fill="none" fill-opacity="0" stroke="#fdfdfd" stroke-opacity=".09" stroke-width=".3" d="M313 311c-8.53 3.57-16.83 7.64-23.75 14.25s4.58 15.38 7.83 22.67S307.47 363.5 311 371c2.18-19.13.23-40.36 2-60Z"/><path fill="#fefefe" fill-opacity=".03" d="M0 700h700V0H0zM237 15c9.74 1.39 19.87 6.72 28.1 11.9 8.22 5.18 14.5 11.17 19.7 18.35 5.2 7.17 10.28 16.04 12.98 25.97 2.7 9.94 4.22 22.92 1.89 33.45-2.32 10.53-9.7 18.34-8.34 29s11.15 16.94 12.99 28.01c1.85 11.06-13.96 10.85-21.57 5.12-7.61-5.72-17.69-11.06-26.45-6.5-8.77 4.55-23.2 8.21-33.3 7.7s-23.5-2.95-32.23-7.77-15.35-8.99-22.02-15.98c-6.66-6.99-12.01-16.16-15.52-25.48s-7.25-22.59-5.3-32.84 4.51-21.51 9.38-30.62c4.86-9.12 10.14-16.07 18.44-22.56 8.31-6.48 13.93-10.16 24.14-13.86 10.22-3.7 25.33-5.57 37.11-3.89m279 234v22c19.16 2.23 21.36 32.63 3.77 38.77-17.58 6.14-34.38 11.2-52.78 12.22-18.39 1.02-37.88-7.15-54.99-11.99.55 17.39-.73 37.92 0 55s-3.11 35.43 4.32 49.68c7.44 14.24 8.54 25.13 15.66 39.34 7.11 14.22 9.6 30.29 9.02 46.98s-.09 38.99 0 55-7.8 29.36-24.67 28.67c-16.87-.7-21.4-16.16-21.33-31.67s-2.37-38.79-1-55-3.34-28.05-8.98-42.02C379.39 442 373.3 430.31 369 416h-10c.79 21.92-2.48 46.25-1 68s-2.75 47.41-1 68-10.44 38.35-31.22 30.22C305 574.1 311.89 548.45 311 528s.4-46.63 1-68-.45-47.22 0-69c-12.58 16.41-30.89 8.96-39.3-6.7-8.42-15.65-15.03-26.81-25.47-41.53-10.44-14.71-6.34-29.62 7.02-41.52 13.35-11.9 21.19-18.41 36.78-26.22 15.59-7.8 30.38-11.34 48.19-14.81 17.82-3.47 40.21-1.49 57.85 2.71 17.65 4.19 34.21 10.79 51.6 15.4 17.4 4.6 37.42-1.09 54.33-5.33-2.26-7.5-.39-16.08-1-24-33.35-8.46-45.67-47.2-28.75-76.75 16.93-29.54 60.96-26.34 74.52 4.98S545.21 241.76 516 249m-148-94c33.64 4.81 52.15 48.05 31.03 75.03-21.13 26.97-64.8 23.34-79.8-8.26-15-31.59 11.93-72.03 48.77-66.77"/><path fill="#fff" fill-opacity=".99" d="M237 15c-11.78-1.68-26.89.19-37.11 3.89-10.21 3.7-15.83 7.38-24.14 13.86-8.3 6.49-13.58 13.44-18.44 22.56-4.87 9.11-7.43 20.37-9.38 30.62s1.79 23.52 5.3 32.84 8.86 18.49 15.52 25.48c6.67 6.99 13.29 11.16 22.02 15.98S212.9 167.49 223 168s24.53-3.15 33.3-7.7c8.76-4.56 18.84.78 26.45 6.5 7.61 5.73 23.42 5.94 21.57-5.12-1.84-11.07-11.63-17.35-12.99-28.01s6.02-18.47 8.34-29c2.33-10.53.81-23.51-1.89-33.45-2.7-9.93-7.78-18.8-12.98-25.97-5.2-7.18-11.48-13.17-19.7-18.35-8.23-5.18-18.36-10.51-28.1-11.9m-34 42c15.71 2.43 10.76 28.62-5 25s-10.57-27.41 5-25m47 0c15.36 2.37 10.82 28.44-5 25s-10.79-27.44 5-25m4 44c5.58 2.88-.05 13.38-2.77 17.23s-7.07 9.33-12.31 11.69c-5.24 2.35-12.69 4.49-18.94 3.1-6.26-1.39-12.34-2.4-17.23-7.77-4.89-5.38-6.54-7.16-9.53-14.47-2.99-7.32 3.97-11.79 11.78-9.78s16.54-2.08 24 0 18.3-3.46 25 0"/><path fill="#fcfcfc" fill-opacity=".1" d="M203 57c-15.57-2.41-20.76 21.38-5 25s20.71-22.57 5-25"/><path fill="#fdfdfd" fill-opacity=".1" d="M250 57c-15.79-2.44-20.82 21.56-5 25s20.36-22.63 5-25"/><path fill="#fefefe" fill-opacity=".07" d="M254 101c-6.7-3.46-17.54 2.08-25 0s-16.19 2.01-24 0-14.77 2.46-11.78 9.78c2.99 7.31 4.64 9.09 9.53 14.47 4.89 5.37 10.97 6.38 17.23 7.77 6.25 1.39 13.7-.75 18.94-3.1 5.24-2.36 9.59-7.84 12.31-11.69s8.35-14.35 2.77-17.23"/><path fill="#fefefe" fill-opacity=".99" d="M516 249c29.21-7.24 45.33-40.45 31.77-71.77s-57.59-34.52-74.52-4.98c-16.92 29.55-4.6 68.29 28.75 76.75.61 7.92-1.26 16.5 1 24-16.91 4.24-36.93 9.93-54.33 5.33-17.39-4.61-33.95-11.21-51.6-15.4-17.64-4.2-40.03-6.18-57.85-2.71-17.81 3.47-32.6 7.01-48.19 14.81-15.59 7.81-23.43 14.32-36.78 26.22-13.36 11.9-17.46 26.81-7.02 41.52 10.44 14.72 17.05 25.88 25.47 41.53 8.41 15.66 26.72 23.11 39.3 6.7-.45 21.78.6 47.63 0 69s-1.89 47.55-1 68-6 46.1 14.78 54.22c20.78 8.13 32.97-9.63 31.22-30.22s2.48-46.25 1-68 1.79-46.08 1-68h10c4.3 14.31 10.39 26 16.02 39.98 5.64 13.97 10.35 25.81 8.98 42.02s1.07 39.49 1 55 4.46 30.97 21.33 31.67c16.87.69 24.76-12.66 24.67-28.67s-.58-38.31 0-55-1.91-32.76-9.02-46.98c-7.12-14.21-8.22-25.1-15.66-39.34-7.43-14.25-3.59-32.6-4.32-49.68s.55-37.61 0-55c17.11 4.84 36.6 13.01 54.99 11.99 18.4-1.02 35.2-6.08 52.78-12.22 17.59-6.14 15.39-36.54-3.77-38.77zm-2-85c37.81 6.14 29.94 78.31-9.22 72.22S473.89 157.49 514 164M313 311c-1.77 19.64.18 40.87-2 60-3.53-7.5-10.67-15.79-13.92-23.08s-14.75-16.06-7.83-22.67S304.47 314.57 313 311"/><path fill="#fefefe" fill-opacity=".98" d="M368 155c-36.84-5.26-63.77 35.18-48.77 66.77 15 31.6 58.67 35.23 79.8 8.26 21.12-26.98 2.61-70.22-31.03-75.03"/><path fill="#fdfdfd" fill-opacity=".07" d="M514 164c-40.11-6.51-48.38 66.13-9.22 72.22S551.81 170.14 514 164m-2 22c-1.7 7.33-13.63 21.37-21 15 1.12-7.81 13.4-22.7 21-15m15 7c-3.87 9.22-16.26 22.17-26 26-1.11-3.12-2.82-3.53-3-7 8.02-5.55 16.48-13.99 22-22 3.38.16 3.82 1.86 7 3"/><path fill="#fff" fill-opacity=".9" d="M512 186c-7.6-7.7-19.88 7.19-21 15 7.37 6.37 19.3-7.67 21-15"/><path fill="#fff" fill-opacity=".95" d="M527 193c-3.18-1.14-3.62-2.84-7-3-5.52 8.01-13.98 16.45-22 22 .18 3.47 1.89 3.88 3 7 9.74-3.83 22.13-16.78 26-26"/><path fill="#fdfdfd" fill-opacity=".09" d="M313 311c-8.53 3.57-16.83 7.64-23.75 14.25s4.58 15.38 7.83 22.67S307.47 363.5 311 371c2.18-19.13.23-40.36 2-60"/></svg>