<svg xmlns="http://www.w3.org/2000/svg" xmlns:v="https://svgstorm.com"
viewBox = "0 0 512 512"
width="512"
height="512">
<g fill="None" fill-opacity="0.0" stroke="#000000" stroke-opacity="0.00" stroke-width="0.3"><path d="
M 0.00 512.00 
L 512.00 512.00
L 512.00 0.00
L 0.00 0.00
L 0.00 512.00
M 255.00 58.00 
C 267.56 48.34 275.61 37.55 290.23 30.23 C 304.85 22.91 327.31 18.71 344.00 22.00 C 360.70 25.28 374.06 30.88 386.75 42.25 C 399.45 53.62 406.87 64.92 412.32 80.68 C 417.77 96.43 416.88 121.07 413.02 137.02 C 409.17 152.98 402.34 168.30 393.08 181.08 C 383.82 193.86 373.58 203.30 361.75 212.75 C 349.92 222.20 338.98 233.35 327.25 242.25 C 315.51 251.14 305.24 263.75 293.25 271.25 C 281.25 278.75 271.16 297.96 257.00 299.00 C 242.84 300.03 231.90 280.24 220.25 272.75 C 208.59 265.26 197.37 252.04 185.75 243.25 C 174.14 234.45 163.57 223.58 151.77 214.23 C 139.97 204.88 129.16 194.76 119.75 182.25 C 110.34 169.73 103.78 155.13 99.67 139.33 C 95.56 123.52 93.73 98.02 98.99 81.99 C 104.26 65.96 111.62 55.21 123.75 43.75 C 135.87 32.28 149.82 25.56 166.22 22.22 C 182.63 18.88 205.15 22.12 219.69 29.31 C 234.24 36.49 244.26 45.71 255.00 58.00
M 142.00 345.00 
C 132.88 335.76 125.76 324.29 127.00 311.00 C 128.24 297.71 136.48 287.38 149.22 283.22 C 161.97 279.07 175.67 285.53 184.75 294.25 C 193.83 302.97 202.55 308.57 211.75 317.25 C 220.96 325.93 229.52 329.84 236.77 341.23 C 244.02 352.62 247.44 366.96 246.00 382.00 C 244.56 397.04 247.73 415.39 246.00 431.00 C 244.27 446.61 249.12 465.43 246.00 481.00 C 242.88 496.57 221.08 491.17 207.00 491.00 C 192.92 490.83 172.60 492.91 157.00 491.00 C 141.40 489.09 155.41 458.43 146.25 451.75 C 137.09 445.08 127.51 437.99 117.75 431.25 C 107.99 424.51 98.87 417.11 88.30 410.70 C 77.74 404.29 71.90 394.40 67.08 382.92 C 62.25 371.45 55.63 361.12 50.23 349.77 C 44.83 338.42 40.01 328.39 34.08 316.92 C 28.14 305.46 21.69 293.57 21.00 280.00 C 20.31 266.43 26.64 254.20 40.02 250.03 C 53.41 245.85 67.02 253.36 73.25 264.75 C 79.49 276.13 86.38 283.34 92.75 294.25 C 99.13 305.15 106.14 313.30 112.75 324.25 C 119.37 335.19 126.48 347.57 142.00 345.00
M 371.00 345.00 
C 377.28 345.14 382.73 342.06 389.00 342.00
C 393.77 331.49 401.41 322.57 407.75 312.75 C 414.09 302.94 420.45 292.86 427.25 283.25 C 434.05 273.65 437.81 263.43 447.25 255.25 C 456.68 247.07 473.18 247.42 482.70 256.30 C 492.22 265.19 492.91 282.25 489.01 294.01 C 485.11 305.76 478.59 316.22 473.23 327.23 C 467.87 338.24 461.45 348.43 456.69 359.70 C 451.94 370.96 444.73 380.03 440.70 391.69 C 436.66 403.36 425.27 408.97 416.25 416.25 C 407.23 423.53 396.02 427.80 388.25 436.25 C 380.48 444.70 362.15 445.77 363.00 460.00 C 363.85 474.23 363.87 493.30 345.00 491.00 C 326.13 488.70 314.25 490.68 297.00 491.00 C 279.75 491.32 264.81 491.90 266.00 473.00 C 267.19 454.10 265.70 441.86 266.00 425.00 C 266.30 408.14 266.33 391.39 266.00 376.00 C 265.67 360.61 269.36 349.35 277.25 338.25 C 285.15 327.16 293.59 324.46 302.70 315.70 C 311.81 306.93 320.06 301.93 329.25 293.25 C 338.43 284.57 351.67 279.39 364.22 283.78 C 376.77 288.17 384.80 297.48 386.00 311.00 C 387.19 324.52 379.67 335.37 371.00 345.00 Z"/>
</g>
<g fill="None" fill-opacity="0.0" stroke="#FEFFFF" stroke-opacity="0.99" stroke-width="0.3"><path d="
M 255.00 58.00 
C 244.26 45.71 234.24 36.49 219.69 29.31 C 205.15 22.12 182.63 18.88 166.22 22.22 C 149.82 25.56 135.87 32.28 123.75 43.75 C 111.62 55.21 104.26 65.96 98.99 81.99 C 93.73 98.02 95.56 123.52 99.67 139.33 C 103.78 155.13 110.34 169.73 119.75 182.25 C 129.16 194.76 139.97 204.88 151.77 214.23 C 163.57 223.58 174.14 234.45 185.75 243.25 C 197.37 252.04 208.59 265.26 220.25 272.75 C 231.90 280.24 242.84 300.03 257.00 299.00 C 271.16 297.96 281.25 278.75 293.25 271.25 C 305.24 263.75 315.51 251.14 327.25 242.25 C 338.98 233.35 349.92 222.20 361.75 212.75 C 373.58 203.30 383.82 193.86 393.08 181.08 C 402.34 168.30 409.17 152.98 413.02 137.02 C 416.88 121.07 417.77 96.43 412.32 80.68 C 406.87 64.92 399.45 53.62 386.75 42.25 C 374.06 30.88 360.70 25.28 344.00 22.00 C 327.31 18.71 304.85 22.91 290.23 30.23 C 275.61 37.55 267.56 48.34 255.00 58.00 Z"/>
</g>
<g fill="None" fill-opacity="0.0" stroke="#FEFFFF" stroke-opacity="0.98" stroke-width="0.3"><path d="
M 142.00 345.00 
C 126.48 347.57 119.37 335.19 112.75 324.25 C 106.14 313.30 99.13 305.15 92.75 294.25 C 86.38 283.34 79.49 276.13 73.25 264.75 C 67.02 253.36 53.41 245.85 40.02 250.03 C 26.64 254.20 20.31 266.43 21.00 280.00 C 21.69 293.57 28.14 305.46 34.08 316.92 C 40.01 328.39 44.83 338.42 50.23 349.77 C 55.63 361.12 62.25 371.45 67.08 382.92 C 71.90 394.40 77.74 404.29 88.30 410.70 C 98.87 417.11 107.99 424.51 117.75 431.25 C 127.51 437.99 137.09 445.08 146.25 451.75 C 155.41 458.43 141.40 489.09 157.00 491.00 C 172.60 492.91 192.92 490.83 207.00 491.00 C 221.08 491.17 242.88 496.57 246.00 481.00 C 249.12 465.43 244.27 446.61 246.00 431.00 C 247.73 415.39 244.56 397.04 246.00 382.00 C 247.44 366.96 244.02 352.62 236.77 341.23 C 229.52 329.84 220.96 325.93 211.75 317.25 C 202.55 308.57 193.83 302.97 184.75 294.25 C 175.67 285.53 161.97 279.07 149.22 283.22 C 136.48 287.38 128.24 297.71 127.00 311.00 C 125.76 324.29 132.88 335.76 142.00 345.00 Z"/>
</g>
<g fill="None" fill-opacity="0.0" stroke="#FEFFFF" stroke-opacity="0.98" stroke-width="0.3"><path d="
M 371.00 345.00 
C 379.67 335.37 387.19 324.52 386.00 311.00 C 384.80 297.48 376.77 288.17 364.22 283.78 C 351.67 279.39 338.43 284.57 329.25 293.25 C 320.06 301.93 311.81 306.93 302.70 315.70 C 293.59 324.46 285.15 327.16 277.25 338.25 C 269.36 349.35 265.67 360.61 266.00 376.00 C 266.33 391.39 266.30 408.14 266.00 425.00 C 265.70 441.86 267.19 454.10 266.00 473.00 C 264.81 491.90 279.75 491.32 297.00 491.00 C 314.25 490.68 326.13 488.70 345.00 491.00 C 363.87 493.30 363.85 474.23 363.00 460.00 C 362.15 445.77 380.48 444.70 388.25 436.25 C 396.02 427.80 407.23 423.53 416.25 416.25 C 425.27 408.97 436.66 403.36 440.70 391.69 C 444.73 380.03 451.94 370.96 456.69 359.70 C 461.45 348.43 467.87 338.24 473.23 327.23 C 478.59 316.22 485.11 305.76 489.01 294.01 C 492.91 282.25 492.22 265.19 482.70 256.30 C 473.18 247.42 456.68 247.07 447.25 255.25 C 437.81 263.43 434.05 273.65 427.25 283.25 C 420.45 292.86 414.09 302.94 407.75 312.75 C 401.41 322.57 393.77 331.49 389.00 342.00
C 382.73 342.06 377.28 345.14 371.00 345.00 Z"/>
</g>
<g fill="#000000" fill-opacity="0.00" stroke="None">
<path d="
M 0.00 512.00 
L 512.00 512.00
L 512.00 0.00
L 0.00 0.00
L 0.00 512.00
M 255.00 58.00 
C 267.56 48.34 275.61 37.55 290.23 30.23 C 304.85 22.91 327.31 18.71 344.00 22.00 C 360.70 25.28 374.06 30.88 386.75 42.25 C 399.45 53.62 406.87 64.92 412.32 80.68 C 417.77 96.43 416.88 121.07 413.02 137.02 C 409.17 152.98 402.34 168.30 393.08 181.08 C 383.82 193.86 373.58 203.30 361.75 212.75 C 349.92 222.20 338.98 233.35 327.25 242.25 C 315.51 251.14 305.24 263.75 293.25 271.25 C 281.25 278.75 271.16 297.96 257.00 299.00 C 242.84 300.03 231.90 280.24 220.25 272.75 C 208.59 265.26 197.37 252.04 185.75 243.25 C 174.14 234.45 163.57 223.58 151.77 214.23 C 139.97 204.88 129.16 194.76 119.75 182.25 C 110.34 169.73 103.78 155.13 99.67 139.33 C 95.56 123.52 93.73 98.02 98.99 81.99 C 104.26 65.96 111.62 55.21 123.75 43.75 C 135.87 32.28 149.82 25.56 166.22 22.22 C 182.63 18.88 205.15 22.12 219.69 29.31 C 234.24 36.49 244.26 45.71 255.00 58.00
M 142.00 345.00 
C 132.88 335.76 125.76 324.29 127.00 311.00 C 128.24 297.71 136.48 287.38 149.22 283.22 C 161.97 279.07 175.67 285.53 184.75 294.25 C 193.83 302.97 202.55 308.57 211.75 317.25 C 220.96 325.93 229.52 329.84 236.77 341.23 C 244.02 352.62 247.44 366.96 246.00 382.00 C 244.56 397.04 247.73 415.39 246.00 431.00 C 244.27 446.61 249.12 465.43 246.00 481.00 C 242.88 496.57 221.08 491.17 207.00 491.00 C 192.92 490.83 172.60 492.91 157.00 491.00 C 141.40 489.09 155.41 458.43 146.25 451.75 C 137.09 445.08 127.51 437.99 117.75 431.25 C 107.99 424.51 98.87 417.11 88.30 410.70 C 77.74 404.29 71.90 394.40 67.08 382.92 C 62.25 371.45 55.63 361.12 50.23 349.77 C 44.83 338.42 40.01 328.39 34.08 316.92 C 28.14 305.46 21.69 293.57 21.00 280.00 C 20.31 266.43 26.64 254.20 40.02 250.03 C 53.41 245.85 67.02 253.36 73.25 264.75 C 79.49 276.13 86.38 283.34 92.75 294.25 C 99.13 305.15 106.14 313.30 112.75 324.25 C 119.37 335.19 126.48 347.57 142.00 345.00
M 371.00 345.00 
C 377.28 345.14 382.73 342.06 389.00 342.00
C 393.77 331.49 401.41 322.57 407.75 312.75 C 414.09 302.94 420.45 292.86 427.25 283.25 C 434.05 273.65 437.81 263.43 447.25 255.25 C 456.68 247.07 473.18 247.42 482.70 256.30 C 492.22 265.19 492.91 282.25 489.01 294.01 C 485.11 305.76 478.59 316.22 473.23 327.23 C 467.87 338.24 461.45 348.43 456.69 359.70 C 451.94 370.96 444.73 380.03 440.70 391.69 C 436.66 403.36 425.27 408.97 416.25 416.25 C 407.23 423.53 396.02 427.80 388.25 436.25 C 380.48 444.70 362.15 445.77 363.00 460.00 C 363.85 474.23 363.87 493.30 345.00 491.00 C 326.13 488.70 314.25 490.68 297.00 491.00 C 279.75 491.32 264.81 491.90 266.00 473.00 C 267.19 454.10 265.70 441.86 266.00 425.00 C 266.30 408.14 266.33 391.39 266.00 376.00 C 265.67 360.61 269.36 349.35 277.25 338.25 C 285.15 327.16 293.59 324.46 302.70 315.70 C 311.81 306.93 320.06 301.93 329.25 293.25 C 338.43 284.57 351.67 279.39 364.22 283.78 C 376.77 288.17 384.80 297.48 386.00 311.00 C 387.19 324.52 379.67 335.37 371.00 345.00 Z"/>
</g>
<g fill="#FEFFFF" fill-opacity="0.99" stroke="None">
<path d="
M 255.00 58.00 
C 244.26 45.71 234.24 36.49 219.69 29.31 C 205.15 22.12 182.63 18.88 166.22 22.22 C 149.82 25.56 135.87 32.28 123.75 43.75 C 111.62 55.21 104.26 65.96 98.99 81.99 C 93.73 98.02 95.56 123.52 99.67 139.33 C 103.78 155.13 110.34 169.73 119.75 182.25 C 129.16 194.76 139.97 204.88 151.77 214.23 C 163.57 223.58 174.14 234.45 185.75 243.25 C 197.37 252.04 208.59 265.26 220.25 272.75 C 231.90 280.24 242.84 300.03 257.00 299.00 C 271.16 297.96 281.25 278.75 293.25 271.25 C 305.24 263.75 315.51 251.14 327.25 242.25 C 338.98 233.35 349.92 222.20 361.75 212.75 C 373.58 203.30 383.82 193.86 393.08 181.08 C 402.34 168.30 409.17 152.98 413.02 137.02 C 416.88 121.07 417.77 96.43 412.32 80.68 C 406.87 64.92 399.45 53.62 386.75 42.25 C 374.06 30.88 360.70 25.28 344.00 22.00 C 327.31 18.71 304.85 22.91 290.23 30.23 C 275.61 37.55 267.56 48.34 255.00 58.00 Z"/>
</g>
<g fill="#FEFFFF" fill-opacity="0.98" stroke="None">
<path d="
M 142.00 345.00 
C 126.48 347.57 119.37 335.19 112.75 324.25 C 106.14 313.30 99.13 305.15 92.75 294.25 C 86.38 283.34 79.49 276.13 73.25 264.75 C 67.02 253.36 53.41 245.85 40.02 250.03 C 26.64 254.20 20.31 266.43 21.00 280.00 C 21.69 293.57 28.14 305.46 34.08 316.92 C 40.01 328.39 44.83 338.42 50.23 349.77 C 55.63 361.12 62.25 371.45 67.08 382.92 C 71.90 394.40 77.74 404.29 88.30 410.70 C 98.87 417.11 107.99 424.51 117.75 431.25 C 127.51 437.99 137.09 445.08 146.25 451.75 C 155.41 458.43 141.40 489.09 157.00 491.00 C 172.60 492.91 192.92 490.83 207.00 491.00 C 221.08 491.17 242.88 496.57 246.00 481.00 C 249.12 465.43 244.27 446.61 246.00 431.00 C 247.73 415.39 244.56 397.04 246.00 382.00 C 247.44 366.96 244.02 352.62 236.77 341.23 C 229.52 329.84 220.96 325.93 211.75 317.25 C 202.55 308.57 193.83 302.97 184.75 294.25 C 175.67 285.53 161.97 279.07 149.22 283.22 C 136.48 287.38 128.24 297.71 127.00 311.00 C 125.76 324.29 132.88 335.76 142.00 345.00 Z"/>
</g>
<g fill="#FEFFFF" fill-opacity="0.98" stroke="None">
<path d="
M 371.00 345.00 
C 379.67 335.37 387.19 324.52 386.00 311.00 C 384.80 297.48 376.77 288.17 364.22 283.78 C 351.67 279.39 338.43 284.57 329.25 293.25 C 320.06 301.93 311.81 306.93 302.70 315.70 C 293.59 324.46 285.15 327.16 277.25 338.25 C 269.36 349.35 265.67 360.61 266.00 376.00 C 266.33 391.39 266.30 408.14 266.00 425.00 C 265.70 441.86 267.19 454.10 266.00 473.00 C 264.81 491.90 279.75 491.32 297.00 491.00 C 314.25 490.68 326.13 488.70 345.00 491.00 C 363.87 493.30 363.85 474.23 363.00 460.00 C 362.15 445.77 380.48 444.70 388.25 436.25 C 396.02 427.80 407.23 423.53 416.25 416.25 C 425.27 408.97 436.66 403.36 440.70 391.69 C 444.73 380.03 451.94 370.96 456.69 359.70 C 461.45 348.43 467.87 338.24 473.23 327.23 C 478.59 316.22 485.11 305.76 489.01 294.01 C 492.91 282.25 492.22 265.19 482.70 256.30 C 473.18 247.42 456.68 247.07 447.25 255.25 C 437.81 263.43 434.05 273.65 427.25 283.25 C 420.45 292.86 414.09 302.94 407.75 312.75 C 401.41 322.57 393.77 331.49 389.00 342.00
C 382.73 342.06 377.28 345.14 371.00 345.00 Z"/>
</g>
</svg>