<svg xmlns="http://www.w3.org/2000/svg" xmlns:v="https://svgstorm.com"
viewBox = "0 0 512 512"
width="512"
height="512">
<g fill="None" fill-opacity="0.0" stroke="#000000" stroke-opacity="0.00" stroke-width="0.3"><path d="
M 0.00 512.00 
L 512.00 512.00
L 512.00 0.00
L 0.00 0.00
L 0.00 512.00
M 262.00 32.00 
C 273.03 34.73 280.27 46.91 291.23 51.77 C 302.19 56.63 311.42 64.80 323.08 69.92 C 334.73 75.05 345.28 80.56 358.02 84.98 C 370.77 89.39 382.46 93.10 396.67 96.33 C 410.88 99.56 425.05 100.25 441.00 102.00 C 456.95 103.75 456.70 122.56 456.00 137.00 C 455.30 151.44 456.08 171.69 456.00 187.00 C 455.92 202.31 455.87 221.22 455.22 236.22 C 454.58 251.22 453.93 267.31 451.07 281.07 C 448.22 294.83 445.57 308.49 441.02 321.02 C 436.48 333.56 431.65 344.42 425.69 355.70 C 419.74 366.97 414.06 376.78 406.70 386.70 C 399.33 396.62 392.09 404.69 383.75 413.75 C 375.41 422.81 366.33 429.16 356.77 436.77 C 347.21 444.38 337.57 450.33 326.75 456.75 C 315.94 463.17 303.67 466.48 291.93 471.93 C 280.18 477.37 263.61 481.13 250.00 480.00 C 236.39 478.87 224.23 474.09 212.77 468.23 C 201.31 462.36 190.46 457.73 180.30 450.70 C 170.14 443.66 160.80 437.33 151.75 429.25 C 142.70 421.17 134.36 413.92 126.25 404.75 C 118.14 395.59 111.43 386.82 104.25 376.75 C 97.06 366.69 91.82 356.58 85.69 345.31 C 79.57 334.03 75.63 322.59 71.02 309.98 C 66.42 297.36 63.58 284.33 60.67 270.33 C 57.76 256.33 57.64 240.76 56.67 225.33 C 55.70 209.90 56.66 192.22 56.00 176.00 C 55.34 159.78 57.75 142.50 56.00 126.00 C 54.25 109.50 65.60 100.06 81.02 101.02 C 96.45 101.98 110.36 96.78 124.07 94.07 C 137.79 91.36 149.64 86.55 162.07 82.07 C 174.51 77.60 184.67 71.60 196.08 66.08 C 207.49 60.56 216.64 53.44 227.25 47.25 C 237.85 41.05 248.26 28.60 262.00 32.00 Z"/>
</g>
<g fill="None" fill-opacity="0.0" stroke="#FEFFFF" stroke-opacity="0.99" stroke-width="0.3"><path d="
M 262.00 32.00 
C 248.26 28.60 237.85 41.05 227.25 47.25 C 216.64 53.44 207.49 60.56 196.08 66.08 C 184.67 71.60 174.51 77.60 162.07 82.07 C 149.64 86.55 137.79 91.36 124.07 94.07 C 110.36 96.78 96.45 101.98 81.02 101.02 C 65.60 100.06 54.25 109.50 56.00 126.00 C 57.75 142.50 55.34 159.78 56.00 176.00 C 56.66 192.22 55.70 209.90 56.67 225.33 C 57.64 240.76 57.76 256.33 60.67 270.33 C 63.58 284.33 66.42 297.36 71.02 309.98 C 75.63 322.59 79.57 334.03 85.69 345.31 C 91.82 356.58 97.06 366.69 104.25 376.75 C 111.43 386.82 118.14 395.59 126.25 404.75 C 134.36 413.92 142.70 421.17 151.75 429.25 C 160.80 437.33 170.14 443.66 180.30 450.70 C 190.46 457.73 201.31 462.36 212.77 468.23 C 224.23 474.09 236.39 478.87 250.00 480.00 C 263.61 481.13 280.18 477.37 291.93 471.93 C 303.67 466.48 315.94 463.17 326.75 456.75 C 337.57 450.33 347.21 444.38 356.77 436.77 C 366.33 429.16 375.41 422.81 383.75 413.75 C 392.09 404.69 399.33 396.62 406.70 386.70 C 414.06 376.78 419.74 366.97 425.69 355.70 C 431.65 344.42 436.48 333.56 441.02 321.02 C 445.57 308.49 448.22 294.83 451.07 281.07 C 453.93 267.31 454.58 251.22 455.22 236.22 C 455.87 221.22 455.92 202.31 456.00 187.00 C 456.08 171.69 455.30 151.44 456.00 137.00 C 456.70 122.56 456.95 103.75 441.00 102.00 C 425.05 100.25 410.88 99.56 396.67 96.33 C 382.46 93.10 370.77 89.39 358.02 84.98 C 345.28 80.56 334.73 75.05 323.08 69.92 C 311.42 64.80 302.19 56.63 291.23 51.77 C 280.27 46.91 273.03 34.73 262.00 32.00
M 234.00 289.00 
C 245.45 279.39 253.41 268.86 264.75 258.75 C 276.10 248.65 282.92 238.40 295.25 228.25 C 307.58 218.10 311.59 206.98 326.75 197.75 C 341.90 188.51 357.09 213.95 342.75 224.75 C 328.42 235.55 324.36 244.20 312.25 255.25 C 300.14 266.30 292.46 274.44 281.25 286.25 C 270.04 298.05 261.67 303.09 250.75 316.75 C 239.83 330.41 222.88 324.20 213.75 311.25 C 204.62 298.29 191.77 291.67 182.75 280.25 C 173.73 268.82 153.69 259.34 166.25 244.25 C 178.82 229.17 194.00 247.90 203.25 257.75 C 212.49 267.61 225.05 278.67 234.00 289.00 Z"/>
</g>
<g fill="None" fill-opacity="0.0" stroke="#000000" stroke-opacity="0.00" stroke-width="0.3"><path d="
M 234.00 289.00 
C 225.05 278.67 212.49 267.61 203.25 257.75 C 194.00 247.90 178.82 229.17 166.25 244.25 C 153.69 259.34 173.73 268.82 182.75 280.25 C 191.77 291.67 204.62 298.29 213.75 311.25 C 222.88 324.20 239.83 330.41 250.75 316.75 C 261.67 303.09 270.04 298.05 281.25 286.25 C 292.46 274.44 300.14 266.30 312.25 255.25 C 324.36 244.20 328.42 235.55 342.75 224.75 C 357.09 213.95 341.90 188.51 326.75 197.75 C 311.59 206.98 307.58 218.10 295.25 228.25 C 282.92 238.40 276.10 248.65 264.75 258.75 C 253.41 268.86 245.45 279.39 234.00 289.00 Z"/>
</g>
<g fill="#000000" fill-opacity="0.00" stroke="None">
<path d="
M 0.00 512.00 
L 512.00 512.00
L 512.00 0.00
L 0.00 0.00
L 0.00 512.00
M 262.00 32.00 
C 273.03 34.73 280.27 46.91 291.23 51.77 C 302.19 56.63 311.42 64.80 323.08 69.92 C 334.73 75.05 345.28 80.56 358.02 84.98 C 370.77 89.39 382.46 93.10 396.67 96.33 C 410.88 99.56 425.05 100.25 441.00 102.00 C 456.95 103.75 456.70 122.56 456.00 137.00 C 455.30 151.44 456.08 171.69 456.00 187.00 C 455.92 202.31 455.87 221.22 455.22 236.22 C 454.58 251.22 453.93 267.31 451.07 281.07 C 448.22 294.83 445.57 308.49 441.02 321.02 C 436.48 333.56 431.65 344.42 425.69 355.70 C 419.74 366.97 414.06 376.78 406.70 386.70 C 399.33 396.62 392.09 404.69 383.75 413.75 C 375.41 422.81 366.33 429.16 356.77 436.77 C 347.21 444.38 337.57 450.33 326.75 456.75 C 315.94 463.17 303.67 466.48 291.93 471.93 C 280.18 477.37 263.61 481.13 250.00 480.00 C 236.39 478.87 224.23 474.09 212.77 468.23 C 201.31 462.36 190.46 457.73 180.30 450.70 C 170.14 443.66 160.80 437.33 151.75 429.25 C 142.70 421.17 134.36 413.92 126.25 404.75 C 118.14 395.59 111.43 386.82 104.25 376.75 C 97.06 366.69 91.82 356.58 85.69 345.31 C 79.57 334.03 75.63 322.59 71.02 309.98 C 66.42 297.36 63.58 284.33 60.67 270.33 C 57.76 256.33 57.64 240.76 56.67 225.33 C 55.70 209.90 56.66 192.22 56.00 176.00 C 55.34 159.78 57.75 142.50 56.00 126.00 C 54.25 109.50 65.60 100.06 81.02 101.02 C 96.45 101.98 110.36 96.78 124.07 94.07 C 137.79 91.36 149.64 86.55 162.07 82.07 C 174.51 77.60 184.67 71.60 196.08 66.08 C 207.49 60.56 216.64 53.44 227.25 47.25 C 237.85 41.05 248.26 28.60 262.00 32.00 Z"/>
</g>
<g fill="#FEFFFF" fill-opacity="0.99" stroke="None">
<path d="
M 262.00 32.00 
C 248.26 28.60 237.85 41.05 227.25 47.25 C 216.64 53.44 207.49 60.56 196.08 66.08 C 184.67 71.60 174.51 77.60 162.07 82.07 C 149.64 86.55 137.79 91.36 124.07 94.07 C 110.36 96.78 96.45 101.98 81.02 101.02 C 65.60 100.06 54.25 109.50 56.00 126.00 C 57.75 142.50 55.34 159.78 56.00 176.00 C 56.66 192.22 55.70 209.90 56.67 225.33 C 57.64 240.76 57.76 256.33 60.67 270.33 C 63.58 284.33 66.42 297.36 71.02 309.98 C 75.63 322.59 79.57 334.03 85.69 345.31 C 91.82 356.58 97.06 366.69 104.25 376.75 C 111.43 386.82 118.14 395.59 126.25 404.75 C 134.36 413.92 142.70 421.17 151.75 429.25 C 160.80 437.33 170.14 443.66 180.30 450.70 C 190.46 457.73 201.31 462.36 212.77 468.23 C 224.23 474.09 236.39 478.87 250.00 480.00 C 263.61 481.13 280.18 477.37 291.93 471.93 C 303.67 466.48 315.94 463.17 326.75 456.75 C 337.57 450.33 347.21 444.38 356.77 436.77 C 366.33 429.16 375.41 422.81 383.75 413.75 C 392.09 404.69 399.33 396.62 406.70 386.70 C 414.06 376.78 419.74 366.97 425.69 355.70 C 431.65 344.42 436.48 333.56 441.02 321.02 C 445.57 308.49 448.22 294.83 451.07 281.07 C 453.93 267.31 454.58 251.22 455.22 236.22 C 455.87 221.22 455.92 202.31 456.00 187.00 C 456.08 171.69 455.30 151.44 456.00 137.00 C 456.70 122.56 456.95 103.75 441.00 102.00 C 425.05 100.25 410.88 99.56 396.67 96.33 C 382.46 93.10 370.77 89.39 358.02 84.98 C 345.28 80.56 334.73 75.05 323.08 69.92 C 311.42 64.80 302.19 56.63 291.23 51.77 C 280.27 46.91 273.03 34.73 262.00 32.00
M 234.00 289.00 
C 245.45 279.39 253.41 268.86 264.75 258.75 C 276.10 248.65 282.92 238.40 295.25 228.25 C 307.58 218.10 311.59 206.98 326.75 197.75 C 341.90 188.51 357.09 213.95 342.75 224.75 C 328.42 235.55 324.36 244.20 312.25 255.25 C 300.14 266.30 292.46 274.44 281.25 286.25 C 270.04 298.05 261.67 303.09 250.75 316.75 C 239.83 330.41 222.88 324.20 213.75 311.25 C 204.62 298.29 191.77 291.67 182.75 280.25 C 173.73 268.82 153.69 259.34 166.25 244.25 C 178.82 229.17 194.00 247.90 203.25 257.75 C 212.49 267.61 225.05 278.67 234.00 289.00 Z"/>
</g>
<g fill="#000000" fill-opacity="0.00" stroke="None">
<path d="
M 234.00 289.00 
C 225.05 278.67 212.49 267.61 203.25 257.75 C 194.00 247.90 178.82 229.17 166.25 244.25 C 153.69 259.34 173.73 268.82 182.75 280.25 C 191.77 291.67 204.62 298.29 213.75 311.25 C 222.88 324.20 239.83 330.41 250.75 316.75 C 261.67 303.09 270.04 298.05 281.25 286.25 C 292.46 274.44 300.14 266.30 312.25 255.25 C 324.36 244.20 328.42 235.55 342.75 224.75 C 357.09 213.95 341.90 188.51 326.75 197.75 C 311.59 206.98 307.58 218.10 295.25 228.25 C 282.92 238.40 276.10 248.65 264.75 258.75 C 253.41 268.86 245.45 279.39 234.00 289.00 Z"/>
</g>
</svg>