<svg xmlns="http://www.w3.org/2000/svg" xmlns:v="https://svgstorm.com"
viewBox = "0 0 512 512"
width="512"
height="512">
<g fill="None" fill-opacity="0.0" stroke="#000000" stroke-opacity="0.00" stroke-width="0.3"><path d="
M 0.00 512.00 
L 101.00 512.00
C 92.17 502.61 87.82 492.31 81.23 480.77 C 74.64 469.23 68.51 460.43 62.08 447.92 C 55.65 435.40 49.55 429.30 43.08 414.92 C 36.61 400.54 56.39 396.05 66.23 388.23 C 76.07 380.41 91.66 378.06 96.77 392.23 C 101.88 406.40 110.30 413.19 115.77 425.23 C 121.24 437.27 129.61 447.58 134.77 458.23 C 139.93 468.88 153.92 482.93 143.75 492.75 C 133.59 502.57 120.71 502.34 111.00 512.00
L 512.00 512.00
L 512.00 0.00
L 0.00 0.00
L 0.00 512.00
M 267.00 64.00 
C 267.00 67.67 267.00 71.33 267.00 75.00
C 372.63 76.83 467.18 171.34 469.00 277.00
C 495.84 274.64 499.06 320.31 471.00 320.00 C 442.93 319.69 413.35 320.11 385.00 320.00 C 356.65 319.89 327.43 319.99 299.00 320.00 C 270.57 320.01 242.46 319.85 214.00 320.00 C 185.54 320.15 156.46 319.62 128.00 320.00 C 99.54 320.38 70.33 319.13 42.00 320.00 C 13.67 320.87 15.25 275.19 43.00 277.00
C 44.81 171.33 139.35 76.85 245.00 75.00
C 245.00 71.33 245.00 67.67 245.00 64.00
C 235.22 68.97 218.39 59.03 224.33 48.33 C 230.27 37.63 246.16 41.91 256.00 42.00 C 265.84 42.09 280.75 37.38 287.25 47.75 C 293.75 58.13 277.46 69.44 267.00 64.00
M 161.00 464.00 
C 145.03 433.96 125.78 405.33 111.00 375.00
C 121.03 369.62 130.09 365.11 140.08 359.08 C 150.06 353.04 158.45 347.66 170.02 344.02 C 181.60 340.39 197.73 338.45 210.67 340.33 C 223.61 342.21 237.80 343.82 250.67 345.33 C 263.54 346.84 278.18 349.31 290.67 350.33 C 303.16 351.35 320.31 351.39 320.00 366.00 C 319.69 380.61 313.05 385.99 303.00 394.00
C 318.72 388.96 343.95 393.06 356.70 380.70 C 369.44 368.33 378.97 361.38 390.25 347.25 C 401.52 333.12 428.70 339.32 428.00 358.00 C 427.29 376.69 410.99 384.91 401.08 398.08 C 391.17 411.25 382.14 422.95 368.75 432.75 C 355.37 442.56 339.84 446.78 325.25 456.25 C 310.66 465.73 290.14 470.46 271.93 468.07 C 253.71 465.69 232.26 462.39 213.98 459.02 C 195.69 455.66 176.59 450.39 161.00 464.00 Z"/>
</g>
<g fill="None" fill-opacity="0.0" stroke="#FEFFFF" stroke-opacity="0.99" stroke-width="0.3"><path d="
M 267.00 64.00 
C 277.46 69.44 293.75 58.13 287.25 47.75 C 280.75 37.38 265.84 42.09 256.00 42.00 C 246.16 41.91 230.27 37.63 224.33 48.33 C 218.39 59.03 235.22 68.97 245.00 64.00
C 245.00 67.67 245.00 71.33 245.00 75.00
C 139.35 76.85 44.81 171.33 43.00 277.00
C 15.25 275.19 13.67 320.87 42.00 320.00 C 70.33 319.13 99.54 320.38 128.00 320.00 C 156.46 319.62 185.54 320.15 214.00 320.00 C 242.46 319.85 270.57 320.01 299.00 320.00 C 327.43 319.99 356.65 319.89 385.00 320.00 C 413.35 320.11 442.93 319.69 471.00 320.00 C 499.06 320.31 495.84 274.64 469.00 277.00
C 467.18 171.34 372.63 76.83 267.00 75.00
C 267.00 71.33 267.00 67.67 267.00 64.00
M 215.00 113.00 
C 230.39 117.13 217.58 135.96 206.32 135.32 C 195.06 134.68 184.97 146.71 174.75 149.75 C 164.54 152.80 157.93 163.93 148.75 168.75 C 139.57 173.57 134.89 191.84 122.00 188.00 C 109.11 184.16 118.65 167.71 126.75 161.75 C 134.86 155.80 142.53 145.45 151.70 140.70 C 160.86 135.94 169.80 126.61 180.08 124.08 C 190.35 121.54 203.75 109.98 215.00 113.00
M 105.00 200.00 
C 115.70 200.81 115.12 214.93 110.08 221.08 C 105.03 227.22 106.28 240.70 94.99 239.99 C 83.70 239.29 85.23 224.75 89.31 218.31 C 93.38 211.86 94.68 199.22 105.00 200.00 Z"/>
</g>
<g fill="None" fill-opacity="0.0" stroke="#000000" stroke-opacity="0.00" stroke-width="0.3"><path d="
M 215.00 113.00 
C 203.75 109.98 190.35 121.54 180.08 124.08 C 169.80 126.61 160.86 135.94 151.70 140.70 C 142.53 145.45 134.86 155.80 126.75 161.75 C 118.65 167.71 109.11 184.16 122.00 188.00 C 134.89 191.84 139.57 173.57 148.75 168.75 C 157.93 163.93 164.54 152.80 174.75 149.75 C 184.97 146.71 195.06 134.68 206.32 135.32 C 217.58 135.96 230.39 117.13 215.00 113.00 Z"/>
</g>
<g fill="None" fill-opacity="0.0" stroke="#000000" stroke-opacity="0.00" stroke-width="0.3"><path d="
M 105.00 200.00 
C 94.68 199.22 93.38 211.86 89.31 218.31 C 85.23 224.75 83.70 239.29 94.99 239.99 C 106.28 240.70 105.03 227.22 110.08 221.08 C 115.12 214.93 115.70 200.81 105.00 200.00 Z"/>
</g>
<g fill="None" fill-opacity="0.0" stroke="#FEFFFF" stroke-opacity="0.98" stroke-width="0.3"><path d="
M 161.00 464.00 
C 176.59 450.39 195.69 455.66 213.98 459.02 C 232.26 462.39 253.71 465.69 271.93 468.07 C 290.14 470.46 310.66 465.73 325.25 456.25 C 339.84 446.78 355.37 442.56 368.75 432.75 C 382.14 422.95 391.17 411.25 401.08 398.08 C 410.99 384.91 427.29 376.69 428.00 358.00 C 428.70 339.32 401.52 333.12 390.25 347.25 C 378.97 361.38 369.44 368.33 356.70 380.70 C 343.95 393.06 318.72 388.96 303.00 394.00
C 313.05 385.99 319.69 380.61 320.00 366.00 C 320.31 351.39 303.16 351.35 290.67 350.33 C 278.18 349.31 263.54 346.84 250.67 345.33 C 237.80 343.82 223.61 342.21 210.67 340.33 C 197.73 338.45 181.60 340.39 170.02 344.02 C 158.45 347.66 150.06 353.04 140.08 359.08 C 130.09 365.11 121.03 369.62 111.00 375.00
C 125.78 405.33 145.03 433.96 161.00 464.00 Z"/>
</g>
<g fill="None" fill-opacity="0.0" stroke="#FEFFFF" stroke-opacity="0.97" stroke-width="0.3"><path d="
M 101.00 512.00 
L 111.00 512.00
C 120.71 502.34 133.59 502.57 143.75 492.75 C 153.92 482.93 139.93 468.88 134.77 458.23 C 129.61 447.58 121.24 437.27 115.77 425.23 C 110.30 413.19 101.88 406.40 96.77 392.23 C 91.66 378.06 76.07 380.41 66.23 388.23 C 56.39 396.05 36.61 400.54 43.08 414.92 C 49.55 429.30 55.65 435.40 62.08 447.92 C 68.51 460.43 74.64 469.23 81.23 480.77 C 87.82 492.31 92.17 502.61 101.00 512.00 Z"/>
</g>
<g fill="#000000" fill-opacity="0.00" stroke="None">
<path d="
M 0.00 512.00 
L 101.00 512.00
C 92.17 502.61 87.82 492.31 81.23 480.77 C 74.64 469.23 68.51 460.43 62.08 447.92 C 55.65 435.40 49.55 429.30 43.08 414.92 C 36.61 400.54 56.39 396.05 66.23 388.23 C 76.07 380.41 91.66 378.06 96.77 392.23 C 101.88 406.40 110.30 413.19 115.77 425.23 C 121.24 437.27 129.61 447.58 134.77 458.23 C 139.93 468.88 153.92 482.93 143.75 492.75 C 133.59 502.57 120.71 502.34 111.00 512.00
L 512.00 512.00
L 512.00 0.00
L 0.00 0.00
L 0.00 512.00
M 267.00 64.00 
C 267.00 67.67 267.00 71.33 267.00 75.00
C 372.63 76.83 467.18 171.34 469.00 277.00
C 495.84 274.64 499.06 320.31 471.00 320.00 C 442.93 319.69 413.35 320.11 385.00 320.00 C 356.65 319.89 327.43 319.99 299.00 320.00 C 270.57 320.01 242.46 319.85 214.00 320.00 C 185.54 320.15 156.46 319.62 128.00 320.00 C 99.54 320.38 70.33 319.13 42.00 320.00 C 13.67 320.87 15.25 275.19 43.00 277.00
C 44.81 171.33 139.35 76.85 245.00 75.00
C 245.00 71.33 245.00 67.67 245.00 64.00
C 235.22 68.97 218.39 59.03 224.33 48.33 C 230.27 37.63 246.16 41.91 256.00 42.00 C 265.84 42.09 280.75 37.38 287.25 47.75 C 293.75 58.13 277.46 69.44 267.00 64.00
M 161.00 464.00 
C 145.03 433.96 125.78 405.33 111.00 375.00
C 121.03 369.62 130.09 365.11 140.08 359.08 C 150.06 353.04 158.45 347.66 170.02 344.02 C 181.60 340.39 197.73 338.45 210.67 340.33 C 223.61 342.21 237.80 343.82 250.67 345.33 C 263.54 346.84 278.18 349.31 290.67 350.33 C 303.16 351.35 320.31 351.39 320.00 366.00 C 319.69 380.61 313.05 385.99 303.00 394.00
C 318.72 388.96 343.95 393.06 356.70 380.70 C 369.44 368.33 378.97 361.38 390.25 347.25 C 401.52 333.12 428.70 339.32 428.00 358.00 C 427.29 376.69 410.99 384.91 401.08 398.08 C 391.17 411.25 382.14 422.95 368.75 432.75 C 355.37 442.56 339.84 446.78 325.25 456.25 C 310.66 465.73 290.14 470.46 271.93 468.07 C 253.71 465.69 232.26 462.39 213.98 459.02 C 195.69 455.66 176.59 450.39 161.00 464.00 Z"/>
</g>
<g fill="#FEFFFF" fill-opacity="0.99" stroke="None">
<path d="
M 267.00 64.00 
C 277.46 69.44 293.75 58.13 287.25 47.75 C 280.75 37.38 265.84 42.09 256.00 42.00 C 246.16 41.91 230.27 37.63 224.33 48.33 C 218.39 59.03 235.22 68.97 245.00 64.00
C 245.00 67.67 245.00 71.33 245.00 75.00
C 139.35 76.85 44.81 171.33 43.00 277.00
C 15.25 275.19 13.67 320.87 42.00 320.00 C 70.33 319.13 99.54 320.38 128.00 320.00 C 156.46 319.62 185.54 320.15 214.00 320.00 C 242.46 319.85 270.57 320.01 299.00 320.00 C 327.43 319.99 356.65 319.89 385.00 320.00 C 413.35 320.11 442.93 319.69 471.00 320.00 C 499.06 320.31 495.84 274.64 469.00 277.00
C 467.18 171.34 372.63 76.83 267.00 75.00
C 267.00 71.33 267.00 67.67 267.00 64.00
M 215.00 113.00 
C 230.39 117.13 217.58 135.96 206.32 135.32 C 195.06 134.68 184.97 146.71 174.75 149.75 C 164.54 152.80 157.93 163.93 148.75 168.75 C 139.57 173.57 134.89 191.84 122.00 188.00 C 109.11 184.16 118.65 167.71 126.75 161.75 C 134.86 155.80 142.53 145.45 151.70 140.70 C 160.86 135.94 169.80 126.61 180.08 124.08 C 190.35 121.54 203.75 109.98 215.00 113.00
M 105.00 200.00 
C 115.70 200.81 115.12 214.93 110.08 221.08 C 105.03 227.22 106.28 240.70 94.99 239.99 C 83.70 239.29 85.23 224.75 89.31 218.31 C 93.38 211.86 94.68 199.22 105.00 200.00 Z"/>
</g>
<g fill="#000000" fill-opacity="0.00" stroke="None">
<path d="
M 215.00 113.00 
C 203.75 109.98 190.35 121.54 180.08 124.08 C 169.80 126.61 160.86 135.94 151.70 140.70 C 142.53 145.45 134.86 155.80 126.75 161.75 C 118.65 167.71 109.11 184.16 122.00 188.00 C 134.89 191.84 139.57 173.57 148.75 168.75 C 157.93 163.93 164.54 152.80 174.75 149.75 C 184.97 146.71 195.06 134.68 206.32 135.32 C 217.58 135.96 230.39 117.13 215.00 113.00 Z"/>
</g>
<g fill="#000000" fill-opacity="0.00" stroke="None">
<path d="
M 105.00 200.00 
C 94.68 199.22 93.38 211.86 89.31 218.31 C 85.23 224.75 83.70 239.29 94.99 239.99 C 106.28 240.70 105.03 227.22 110.08 221.08 C 115.12 214.93 115.70 200.81 105.00 200.00 Z"/>
</g>
<g fill="#FEFFFF" fill-opacity="0.98" stroke="None">
<path d="
M 161.00 464.00 
C 176.59 450.39 195.69 455.66 213.98 459.02 C 232.26 462.39 253.71 465.69 271.93 468.07 C 290.14 470.46 310.66 465.73 325.25 456.25 C 339.84 446.78 355.37 442.56 368.75 432.75 C 382.14 422.95 391.17 411.25 401.08 398.08 C 410.99 384.91 427.29 376.69 428.00 358.00 C 428.70 339.32 401.52 333.12 390.25 347.25 C 378.97 361.38 369.44 368.33 356.70 380.70 C 343.95 393.06 318.72 388.96 303.00 394.00
C 313.05 385.99 319.69 380.61 320.00 366.00 C 320.31 351.39 303.16 351.35 290.67 350.33 C 278.18 349.31 263.54 346.84 250.67 345.33 C 237.80 343.82 223.61 342.21 210.67 340.33 C 197.73 338.45 181.60 340.39 170.02 344.02 C 158.45 347.66 150.06 353.04 140.08 359.08 C 130.09 365.11 121.03 369.62 111.00 375.00
C 125.78 405.33 145.03 433.96 161.00 464.00 Z"/>
</g>
<g fill="#FEFFFF" fill-opacity="0.97" stroke="None">
<path d="
M 101.00 512.00 
L 111.00 512.00
C 120.71 502.34 133.59 502.57 143.75 492.75 C 153.92 482.93 139.93 468.88 134.77 458.23 C 129.61 447.58 121.24 437.27 115.77 425.23 C 110.30 413.19 101.88 406.40 96.77 392.23 C 91.66 378.06 76.07 380.41 66.23 388.23 C 56.39 396.05 36.61 400.54 43.08 414.92 C 49.55 429.30 55.65 435.40 62.08 447.92 C 68.51 460.43 74.64 469.23 81.23 480.77 C 87.82 492.31 92.17 502.61 101.00 512.00 Z"/>
</g>
</svg>