<svg xmlns="http://www.w3.org/2000/svg" xmlns:v="https://svgstorm.com"
viewBox = "0 0 512 512"
width="512"
height="512">
<g fill="None" fill-opacity="0.0" stroke="#000000" stroke-opacity="0.00" stroke-width="0.3"><path d="
M 0.00 512.00 
L 190.00 512.00
C 180.56 497.18 182.78 472.74 184.00 454.00 C 185.22 435.26 181.61 417.05 171.08 402.92 C 160.54 388.80 156.00 376.86 147.23 362.77 C 138.46 348.68 131.70 336.59 123.70 322.30 C 115.69 308.02 103.46 295.10 105.33 277.33 C 107.20 259.56 124.00 248.87 141.22 250.78 C 158.45 252.69 165.90 269.42 173.77 282.23 C 181.64 295.04 188.77 311.19 197.30 322.70 C 205.84 334.20 209.67 358.76 227.02 355.02 C 244.38 351.29 266.50 350.31 284.02 354.98 C 301.55 359.65 305.85 334.87 314.30 323.30 C 322.76 311.74 329.85 295.65 337.77 282.77 C 345.69 269.89 352.81 253.44 370.00 251.00 C 387.19 248.57 404.04 258.88 406.33 276.67 C 408.61 294.46 396.82 307.31 388.70 321.70 C 380.58 336.08 373.90 347.93 365.08 362.08 C 356.27 376.24 351.76 388.06 341.25 402.25 C 330.73 416.43 326.90 434.17 328.00 453.00 C 329.10 471.83 331.55 497.06 322.00 512.00
L 512.00 512.00
L 512.00 0.00
L 268.00 0.00
C 318.77 7.39 346.02 70.83 317.08 113.08 C 288.13 155.32 224.75 155.82 195.25 113.75 C 165.75 71.68 193.00 7.19 244.00 0.00
L 0.00 0.00
L 0.00 512.00
M 113.00 88.00 
C 119.05 89.94 118.14 101.46 120.98 107.02 C 123.81 112.58 123.86 123.36 133.00 123.00 C 142.14 122.64 152.26 121.57 160.67 123.33 C 169.08 125.09 162.88 135.70 156.77 137.77 C 150.66 139.84 147.50 146.43 140.75 149.75 C 134.00 153.08 140.03 164.02 141.32 169.68 C 142.61 175.33 149.86 184.95 144.23 190.23 C 138.60 195.51 130.20 184.26 125.75 182.25 C 121.31 180.23 113.92 170.85 108.92 172.94 C 103.92 175.02 96.89 180.79 92.92 183.92 C 88.95 187.05 77.62 195.93 75.08 187.92 C 72.54 179.91 79.82 173.06 80.93 165.93 C 82.03 158.80 86.61 151.66 78.25 147.75 C 69.89 143.84 69.97 140.32 61.77 136.23 C 53.57 132.14 56.19 122.88 65.00 123.00 C 73.81 123.13 84.25 124.52 92.00 123.00 C 99.75 121.48 97.17 108.44 100.93 103.93 C 104.68 99.41 102.60 84.66 113.00 88.00
M 404.00 88.00 
C 409.80 89.86 410.29 101.68 412.78 108.22 C 415.26 114.77 417.14 123.97 427.00 123.00 C 436.86 122.03 446.39 119.86 454.23 124.77 C 462.06 129.68 446.38 137.47 443.75 140.75 C 441.12 144.04 427.19 147.80 428.03 154.03 C 428.86 160.26 430.81 169.30 434.78 176.22 C 438.74 183.15 434.93 196.12 425.77 189.23 C 416.61 182.34 417.11 183.56 409.25 176.75 C 401.39 169.95 399.64 174.13 391.75 178.75 C 383.87 183.37 384.63 186.60 374.77 190.77 C 364.91 194.94 366.16 178.63 369.32 173.32 C 372.48 168.01 377.17 155.80 373.74 151.26 C 370.32 146.71 361.59 141.85 356.92 139.08 C 352.24 136.31 341.82 126.09 351.23 123.23 C 360.65 120.37 370.62 123.74 380.00 123.00 C 389.38 122.26 388.64 111.22 391.32 105.32 C 394.00 99.43 394.73 85.02 404.00 88.00
M 260.00 223.00 
C 297.99 226.68 320.07 271.56 298.25 303.25 C 276.42 334.93 229.74 332.33 211.08 298.92 C 192.41 265.52 219.78 219.11 260.00 223.00 Z"/>
</g>
<g fill="None" fill-opacity="0.0" stroke="#FEFFFF" stroke-opacity="0.98" stroke-width="0.3"><path d="
M 268.00 0.00 
L 244.00 0.00
C 193.00 7.19 165.75 71.68 195.25 113.75 C 224.75 155.82 288.13 155.32 317.08 113.08 C 346.02 70.83 318.77 7.39 268.00 0.00
M 249.00 81.00 
C 257.08 77.80 263.01 65.60 270.25 61.25 C 277.49 56.90 283.90 39.53 294.07 45.93 C 304.25 52.33 290.45 62.83 284.25 69.25 C 278.05 75.67 270.36 81.62 263.75 89.75 C 257.14 97.88 247.96 103.31 239.75 93.25 C 231.55 83.19 229.05 81.51 219.25 72.75 C 209.45 63.99 219.52 51.54 228.75 60.25 C 237.99 68.96 240.93 72.41 249.00 81.00 Z"/>
</g>
<g fill="None" fill-opacity="0.0" stroke="#000000" stroke-opacity="0.00" stroke-width="0.3"><path d="
M 249.00 81.00 
C 240.93 72.41 237.99 68.96 228.75 60.25 C 219.52 51.54 209.45 63.99 219.25 72.75 C 229.05 81.51 231.55 83.19 239.75 93.25 C 247.96 103.31 257.14 97.88 263.75 89.75 C 270.36 81.62 278.05 75.67 284.25 69.25 C 290.45 62.83 304.25 52.33 294.07 45.93 C 283.90 39.53 277.49 56.90 270.25 61.25 C 263.01 65.60 257.08 77.80 249.00 81.00 Z"/>
</g>
<g fill="None" fill-opacity="0.0" stroke="#FEFFFF" stroke-opacity="0.96" stroke-width="0.3"><path d="
M 113.00 88.00 
C 102.60 84.66 104.68 99.41 100.93 103.93 C 97.17 108.44 99.75 121.48 92.00 123.00 C 84.25 124.52 73.81 123.13 65.00 123.00 C 56.19 122.88 53.57 132.14 61.77 136.23 C 69.97 140.32 69.89 143.84 78.25 147.75 C 86.61 151.66 82.03 158.80 80.93 165.93 C 79.82 173.06 72.54 179.91 75.08 187.92 C 77.62 195.93 88.95 187.05 92.92 183.92 C 96.89 180.79 103.92 175.02 108.92 172.94 C 113.92 170.85 121.31 180.23 125.75 182.25 C 130.20 184.26 138.60 195.51 144.23 190.23 C 149.86 184.95 142.61 175.33 141.32 169.68 C 140.03 164.02 134.00 153.08 140.75 149.75 C 147.50 146.43 150.66 139.84 156.77 137.77 C 162.88 135.70 169.08 125.09 160.67 123.33 C 152.26 121.57 142.14 122.64 133.00 123.00 C 123.86 123.36 123.81 112.58 120.98 107.02 C 118.14 101.46 119.05 89.94 113.00 88.00 Z"/>
</g>
<g fill="None" fill-opacity="0.0" stroke="#FEFFFF" stroke-opacity="0.96" stroke-width="0.3"><path d="
M 404.00 88.00 
C 394.73 85.02 394.00 99.43 391.32 105.32 C 388.64 111.22 389.38 122.26 380.00 123.00 C 370.62 123.74 360.65 120.37 351.23 123.23 C 341.82 126.09 352.24 136.31 356.92 139.08 C 361.59 141.85 370.32 146.71 373.74 151.26 C 377.17 155.80 372.48 168.01 369.32 173.32 C 366.16 178.63 364.91 194.94 374.77 190.77 C 384.63 186.60 383.87 183.37 391.75 178.75 C 399.64 174.13 401.39 169.95 409.25 176.75 C 417.11 183.56 416.61 182.34 425.77 189.23 C 434.93 196.12 438.74 183.15 434.78 176.22 C 430.81 169.30 428.86 160.26 428.03 154.03 C 427.19 147.80 441.12 144.04 443.75 140.75 C 446.38 137.47 462.06 129.68 454.23 124.77 C 446.39 119.86 436.86 122.03 427.00 123.00 C 417.14 123.97 415.26 114.77 412.78 108.22 C 410.29 101.68 409.80 89.86 404.00 88.00 Z"/>
</g>
<g fill="None" fill-opacity="0.0" stroke="#FEFFFF" stroke-opacity="0.98" stroke-width="0.3"><path d="
M 260.00 223.00 
C 219.78 219.11 192.41 265.52 211.08 298.92 C 229.74 332.33 276.42 334.93 298.25 303.25 C 320.07 271.56 297.99 226.68 260.00 223.00 Z"/>
</g>
<g fill="None" fill-opacity="0.0" stroke="#FEFFFF" stroke-opacity="0.98" stroke-width="0.3"><path d="
M 190.00 512.00 
L 322.00 512.00
C 331.55 497.06 329.10 471.83 328.00 453.00 C 326.90 434.17 330.73 416.43 341.25 402.25 C 351.76 388.06 356.27 376.24 365.08 362.08 C 373.90 347.93 380.58 336.08 388.70 321.70 C 396.82 307.31 408.61 294.46 406.33 276.67 C 404.04 258.88 387.19 248.57 370.00 251.00 C 352.81 253.44 345.69 269.89 337.77 282.77 C 329.85 295.65 322.76 311.74 314.30 323.30 C 305.85 334.87 301.55 359.65 284.02 354.98 C 266.50 350.31 244.38 351.29 227.02 355.02 C 209.67 358.76 205.84 334.20 197.30 322.70 C 188.77 311.19 181.64 295.04 173.77 282.23 C 165.90 269.42 158.45 252.69 141.22 250.78 C 124.00 248.87 107.20 259.56 105.33 277.33 C 103.46 295.10 115.69 308.02 123.70 322.30 C 131.70 336.59 138.46 348.68 147.23 362.77 C 156.00 376.86 160.54 388.80 171.08 402.92 C 181.61 417.05 185.22 435.26 184.00 454.00 C 182.78 472.74 180.56 497.18 190.00 512.00 Z"/>
</g>
<g fill="#000000" fill-opacity="0.00" stroke="None">
<path d="
M 0.00 512.00 
L 190.00 512.00
C 180.56 497.18 182.78 472.74 184.00 454.00 C 185.22 435.26 181.61 417.05 171.08 402.92 C 160.54 388.80 156.00 376.86 147.23 362.77 C 138.46 348.68 131.70 336.59 123.70 322.30 C 115.69 308.02 103.46 295.10 105.33 277.33 C 107.20 259.56 124.00 248.87 141.22 250.78 C 158.45 252.69 165.90 269.42 173.77 282.23 C 181.64 295.04 188.77 311.19 197.30 322.70 C 205.84 334.20 209.67 358.76 227.02 355.02 C 244.38 351.29 266.50 350.31 284.02 354.98 C 301.55 359.65 305.85 334.87 314.30 323.30 C 322.76 311.74 329.85 295.65 337.77 282.77 C 345.69 269.89 352.81 253.44 370.00 251.00 C 387.19 248.57 404.04 258.88 406.33 276.67 C 408.61 294.46 396.82 307.31 388.70 321.70 C 380.58 336.08 373.90 347.93 365.08 362.08 C 356.27 376.24 351.76 388.06 341.25 402.25 C 330.73 416.43 326.90 434.17 328.00 453.00 C 329.10 471.83 331.55 497.06 322.00 512.00
L 512.00 512.00
L 512.00 0.00
L 268.00 0.00
C 318.77 7.39 346.02 70.83 317.08 113.08 C 288.13 155.32 224.75 155.82 195.25 113.75 C 165.75 71.68 193.00 7.19 244.00 0.00
L 0.00 0.00
L 0.00 512.00
M 113.00 88.00 
C 119.05 89.94 118.14 101.46 120.98 107.02 C 123.81 112.58 123.86 123.36 133.00 123.00 C 142.14 122.64 152.26 121.57 160.67 123.33 C 169.08 125.09 162.88 135.70 156.77 137.77 C 150.66 139.84 147.50 146.43 140.75 149.75 C 134.00 153.08 140.03 164.02 141.32 169.68 C 142.61 175.33 149.86 184.95 144.23 190.23 C 138.60 195.51 130.20 184.26 125.75 182.25 C 121.31 180.23 113.92 170.85 108.92 172.94 C 103.92 175.02 96.89 180.79 92.92 183.92 C 88.95 187.05 77.62 195.93 75.08 187.92 C 72.54 179.91 79.82 173.06 80.93 165.93 C 82.03 158.80 86.61 151.66 78.25 147.75 C 69.89 143.84 69.97 140.32 61.77 136.23 C 53.57 132.14 56.19 122.88 65.00 123.00 C 73.81 123.13 84.25 124.52 92.00 123.00 C 99.75 121.48 97.17 108.44 100.93 103.93 C 104.68 99.41 102.60 84.66 113.00 88.00
M 404.00 88.00 
C 409.80 89.86 410.29 101.68 412.78 108.22 C 415.26 114.77 417.14 123.97 427.00 123.00 C 436.86 122.03 446.39 119.86 454.23 124.77 C 462.06 129.68 446.38 137.47 443.75 140.75 C 441.12 144.04 427.19 147.80 428.03 154.03 C 428.86 160.26 430.81 169.30 434.78 176.22 C 438.74 183.15 434.93 196.12 425.77 189.23 C 416.61 182.34 417.11 183.56 409.25 176.75 C 401.39 169.95 399.64 174.13 391.75 178.75 C 383.87 183.37 384.63 186.60 374.77 190.77 C 364.91 194.94 366.16 178.63 369.32 173.32 C 372.48 168.01 377.17 155.80 373.74 151.26 C 370.32 146.71 361.59 141.85 356.92 139.08 C 352.24 136.31 341.82 126.09 351.23 123.23 C 360.65 120.37 370.62 123.74 380.00 123.00 C 389.38 122.26 388.64 111.22 391.32 105.32 C 394.00 99.43 394.73 85.02 404.00 88.00
M 260.00 223.00 
C 297.99 226.68 320.07 271.56 298.25 303.25 C 276.42 334.93 229.74 332.33 211.08 298.92 C 192.41 265.52 219.78 219.11 260.00 223.00 Z"/>
</g>
<g fill="#FEFFFF" fill-opacity="0.98" stroke="None">
<path d="
M 268.00 0.00 
L 244.00 0.00
C 193.00 7.19 165.75 71.68 195.25 113.75 C 224.75 155.82 288.13 155.32 317.08 113.08 C 346.02 70.83 318.77 7.39 268.00 0.00
M 249.00 81.00 
C 257.08 77.80 263.01 65.60 270.25 61.25 C 277.49 56.90 283.90 39.53 294.07 45.93 C 304.25 52.33 290.45 62.83 284.25 69.25 C 278.05 75.67 270.36 81.62 263.75 89.75 C 257.14 97.88 247.96 103.31 239.75 93.25 C 231.55 83.19 229.05 81.51 219.25 72.75 C 209.45 63.99 219.52 51.54 228.75 60.25 C 237.99 68.96 240.93 72.41 249.00 81.00 Z"/>
</g>
<g fill="#000000" fill-opacity="0.00" stroke="None">
<path d="
M 249.00 81.00 
C 240.93 72.41 237.99 68.96 228.75 60.25 C 219.52 51.54 209.45 63.99 219.25 72.75 C 229.05 81.51 231.55 83.19 239.75 93.25 C 247.96 103.31 257.14 97.88 263.75 89.75 C 270.36 81.62 278.05 75.67 284.25 69.25 C 290.45 62.83 304.25 52.33 294.07 45.93 C 283.90 39.53 277.49 56.90 270.25 61.25 C 263.01 65.60 257.08 77.80 249.00 81.00 Z"/>
</g>
<g fill="#FEFFFF" fill-opacity="0.96" stroke="None">
<path d="
M 113.00 88.00 
C 102.60 84.66 104.68 99.41 100.93 103.93 C 97.17 108.44 99.75 121.48 92.00 123.00 C 84.25 124.52 73.81 123.13 65.00 123.00 C 56.19 122.88 53.57 132.14 61.77 136.23 C 69.97 140.32 69.89 143.84 78.25 147.75 C 86.61 151.66 82.03 158.80 80.93 165.93 C 79.82 173.06 72.54 179.91 75.08 187.92 C 77.62 195.93 88.95 187.05 92.92 183.92 C 96.89 180.79 103.92 175.02 108.92 172.94 C 113.92 170.85 121.31 180.23 125.75 182.25 C 130.20 184.26 138.60 195.51 144.23 190.23 C 149.86 184.95 142.61 175.33 141.32 169.68 C 140.03 164.02 134.00 153.08 140.75 149.75 C 147.50 146.43 150.66 139.84 156.77 137.77 C 162.88 135.70 169.08 125.09 160.67 123.33 C 152.26 121.57 142.14 122.64 133.00 123.00 C 123.86 123.36 123.81 112.58 120.98 107.02 C 118.14 101.46 119.05 89.94 113.00 88.00 Z"/>
</g>
<g fill="#FEFFFF" fill-opacity="0.96" stroke="None">
<path d="
M 404.00 88.00 
C 394.73 85.02 394.00 99.43 391.32 105.32 C 388.64 111.22 389.38 122.26 380.00 123.00 C 370.62 123.74 360.65 120.37 351.23 123.23 C 341.82 126.09 352.24 136.31 356.92 139.08 C 361.59 141.85 370.32 146.71 373.74 151.26 C 377.17 155.80 372.48 168.01 369.32 173.32 C 366.16 178.63 364.91 194.94 374.77 190.77 C 384.63 186.60 383.87 183.37 391.75 178.75 C 399.64 174.13 401.39 169.95 409.25 176.75 C 417.11 183.56 416.61 182.34 425.77 189.23 C 434.93 196.12 438.74 183.15 434.78 176.22 C 430.81 169.30 428.86 160.26 428.03 154.03 C 427.19 147.80 441.12 144.04 443.75 140.75 C 446.38 137.47 462.06 129.68 454.23 124.77 C 446.39 119.86 436.86 122.03 427.00 123.00 C 417.14 123.97 415.26 114.77 412.78 108.22 C 410.29 101.68 409.80 89.86 404.00 88.00 Z"/>
</g>
<g fill="#FEFFFF" fill-opacity="0.98" stroke="None">
<path d="
M 260.00 223.00 
C 219.78 219.11 192.41 265.52 211.08 298.92 C 229.74 332.33 276.42 334.93 298.25 303.25 C 320.07 271.56 297.99 226.68 260.00 223.00 Z"/>
</g>
<g fill="#FEFFFF" fill-opacity="0.98" stroke="None">
<path d="
M 190.00 512.00 
L 322.00 512.00
C 331.55 497.06 329.10 471.83 328.00 453.00 C 326.90 434.17 330.73 416.43 341.25 402.25 C 351.76 388.06 356.27 376.24 365.08 362.08 C 373.90 347.93 380.58 336.08 388.70 321.70 C 396.82 307.31 408.61 294.46 406.33 276.67 C 404.04 258.88 387.19 248.57 370.00 251.00 C 352.81 253.44 345.69 269.89 337.77 282.77 C 329.85 295.65 322.76 311.74 314.30 323.30 C 305.85 334.87 301.55 359.65 284.02 354.98 C 266.50 350.31 244.38 351.29 227.02 355.02 C 209.67 358.76 205.84 334.20 197.30 322.70 C 188.77 311.19 181.64 295.04 173.77 282.23 C 165.90 269.42 158.45 252.69 141.22 250.78 C 124.00 248.87 107.20 259.56 105.33 277.33 C 103.46 295.10 115.69 308.02 123.70 322.30 C 131.70 336.59 138.46 348.68 147.23 362.77 C 156.00 376.86 160.54 388.80 171.08 402.92 C 181.61 417.05 185.22 435.26 184.00 454.00 C 182.78 472.74 180.56 497.18 190.00 512.00 Z"/>
</g>
</svg>